0
SECTION
2
HEADER
9
$INSUNITS
70
4
9
$ACADVER
1
AC1014
9
$HANDSEED
5
FFFF
0
ENDSEC
0
SECTION
2
TABLES
0
TABLE
2
VPORT
5
8
100
AcDbSymbolTable
0
ENDTAB
0
TABLE
2
LTYPE
5
5
100
AcDbSymbolTable
0
LTYPE
5
14
100
AcDbSymbolTableRecord
100
AcDbLinetypeTableRecord
2
BYBLOCK
70
0
0
LTYPE
5
15
100
AcDbSymbolTableRecord
100
AcDbLinetypeTableRecord
2
BYLAYER
70
0
0
ENDTAB
0
TABLE
2
LAYER
5
2
100
AcDbSymbolTable
70
2
0
LAYER
5
50
100
AcDbSymbolTableRecord
100
AcDbLayerTableRecord
2
0
70
0
6
CONTINUOUS
0
ENDTAB
0
TABLE
2
STYLE
5
3
100
AcDbSymbolTable
70
1
0
STYLE
5
11
100
AcDbSymbolTableRecord
100
AcDbTextStyleTableRecord
2
STANDARD
70
0
0
ENDTAB
0
TABLE
2
VIEW
5
6
100
AcDbSymbolTable
70
0
0
ENDTAB
0
TABLE
2
UCS
5
7
100
AcDbSymbolTable
70
0
0
ENDTAB
0
TABLE
2
APPID
5
9
100
AcDbSymbolTable
70
2
0
APPID
5
12
100
AcDbSymbolTableRecord
100
AcDbRegAppTableRecord
2
ACAD
70
0
0
ENDTAB
0
TABLE
2
DIMSTYLE
5
A
100
AcDbSymbolTable
70
1
0
ENDTAB
0
TABLE
2
BLOCK_RECORD
5
1
100
AcDbSymbolTable
70
1
0
BLOCK_RECORD
5
1F
100
AcDbSymbolTableRecord
100
AcDbBlockTableRecord
2
*MODEL_SPACE
0
BLOCK_RECORD
5
1B
100
AcDbSymbolTableRecord
100
AcDbBlockTableRecord
2
*PAPER_SPACE
0
ENDTAB
0
ENDSEC
0
SECTION
2
BLOCKS
0
BLOCK
5
20
100
AcDbEntity
100
AcDbBlockBegin
2
*MODEL_SPACE
0
ENDBLK
5
21
100
AcDbEntity
100
AcDbBlockEnd
0
BLOCK
5
1C
100
AcDbEntity
100
AcDbBlockBegin
2
*PAPER_SPACE
0
ENDBLK
5
1D
100
AcDbEntity
100
AcDbBlockEnd
0
ENDSEC
0
SECTION
2
ENTITIES
0
LWPOLYLINE
5
100
100
AcDbEntity
8
0
100
AcDbPolyline
90
32
70
1
43
0.0
10
-93.636348639880808
20
-24.388734326691903
10
-100.6671580973793
20
-25.871412702676967
42
-0.095808538670328014
10
-105.03365418316315
20
-25.944795271075485
10
-123.84451577787445
20
-22.633806365716186
10
-132.22174455400423
20
-21.152371987016949
42
-0.41421356237309553
10
-135.46407428540087
20
-16.516932642909268
10
-122.93339938986897
20
54.341643226881224
42
-0.36382936975998253
10
-118.99451267428149
20
57.645088420525113
10
123.01558451104951
20
57.644956655992978
42
-0.3639667896230071
10
126.95480527220396
20
54.33959514969898
10
139.4507883992429
20
-16.523830683045446
42
-0.41421356237309792
10
136.20620395395858
20
-21.157692115740524
10
127.8338916755648
20
-22.634056992765235
10
109.04387468814988
20
-25.94426944290413
42
-0.096137268046705027
10
104.66271304664266
20
-25.86841119836761
10
97.67801385862893
20
-24.386988109718342
10
87.092285295847049
20
-26.27638494856059
42
0.36337793450659717
10
83.79511913774769
20
-30.214153935014618
10
83.79511913774769
20
-41.508085460783036
42
-0.41421356237309698
10
79.79511913774769
20
-45.508085460783043
10
61.69835059744053
20
-45.508085460783022
10
60.689353736894347
20
-48.113287495042101
10
55.837168767781833
20
-52.468255005733013
10
27.871795793888481
20
-59.955847460783005
10
-23.812239678751808
20
-59.955847460783005
10
-51.821829027923762
20
-52.469980993685212
10
-56.675012648826623
20
-48.119546695503281
10
-57.688798107972382
20
-45.508085460783022
10
-75.772713862251933
20
-45.508085460783022
42
-0.4142135623730937
10
-79.772713862251948
20
-41.508085460783022
10
-79.772713862251933
20
-30.217954261909181
42
0.3632354187247302
10
-83.06789707662432
20
-26.280539716970143
0
LINE
5
101
100
AcDbEntity
8
0
100
AcDbLine
10
-94.133194362608791
20
43.417419022640765
30
0
11
-93.525426119315568
21
46.864246695583269
31
0
0
LINE
5
102
100
AcDbEntity
8
0
100
AcDbLine
10
-93.525426119315568
20
46.864246695583269
30
0
11
-74.764810682437968
21
43.556269893975532
31
0
0
LINE
5
103
100
AcDbEntity
8
0
100
AcDbLine
10
-74.764810682437968
20
43.556269893975532
30
0
11
-74.157046649205427
21
47.003080340905122
31
0
0
LINE
5
104
100
AcDbEntity
8
0
100
AcDbLine
10
-74.157046649205427
20
47.003080340905122
30
0
11
-55.399025000599089
21
43.69554156078987
31
0
0
LINE
5
105
100
AcDbEntity
8
0
100
AcDbLine
10
-55.399025000599089
20
43.69554156078987
30
0
11
-54.79114740846839
21
47.143001070872501
31
0
0
LINE
5
106
100
AcDbEntity
8
0
100
AcDbLine
10
-54.79114740846839
20
47.143001070872501
30
0
11
-34.208592068959838
21
43.513744850571491
31
0
0
LINE
5
107
100
AcDbEntity
8
0
100
AcDbLine
10
-34.208592068959838
20
43.513744850571491
30
0
11
-34.816471963601799
21
40.066277319157507
31
0
0
LINE
5
108
100
AcDbEntity
8
0
100
AcDbLine
10
-34.816471963601799
20
40.066277319157507
30
0
11
-16.053391967022996
21
36.757832910696408
31
0
0
LINE
5
109
100
AcDbEntity
8
0
100
AcDbLine
10
-16.661156424842638
20
33.311022573785671
30
0
11
2.0994084635777321
21
30.003035352759682
31
0
0
LINE
5
110
100
AcDbEntity
8
0
100
AcDbLine
10
1.9562742934241779
20
30.003131805812405
30
0
11
20.71642664588882
21
33.311118782701335
31
0
0
LINE
5
111
100
AcDbEntity
8
0
100
AcDbLine
10
20.108647102635793
20
36.757939132296976
30
0
11
38.870278844109436
21
40.066025017711709
31
0
0
LINE
5
112
100
AcDbEntity
8
0
100
AcDbLine
10
38.870278844109436
20
40.066025017711709
30
0
11
38.262897605185003
21
43.511671349513719
31
0
0
LINE
5
113
100
AcDbEntity
8
0
100
AcDbLine
10
38.262897605185003
20
43.511671349513719
30
0
11
58.844295937965072
21
47.140932100231964
31
0
0
LINE
5
114
100
AcDbEntity
8
0
100
AcDbLine
10
58.844295937965072
20
47.140932100231964
30
0
11
59.451946752766659
21
43.695184469872146
31
0
0
LINE
5
115
100
AcDbEntity
8
0
100
AcDbLine
10
59.451946752766659
20
43.695184469872146
30
0
11
78.212303531700869
21
47.003114074989341
31
0
0
LINE
5
116
100
AcDbEntity
8
0
100
AcDbLine
10
78.212303531700869
20
47.003114074989341
30
0
11
78.820154374627137
21
43.556227128137735
31
0
0
LINE
5
117
100
AcDbEntity
8
0
100
AcDbLine
10
78.820154374627137
20
43.556227128137735
30
0
11
97.581546880764009
21
46.864311947486321
31
0
0
LINE
5
118
100
AcDbEntity
8
0
100
AcDbLine
10
97.581546880764009
20
46.864311947486321
30
0
11
98.189124228229161
21
43.417558136658378
31
0
0
LINE
5
119
100
AcDbEntity
8
0
100
AcDbLine
10
98.189124228229161
20
43.417558136658378
30
0
11
116.94930094785067
21
46.725428583597534
31
0
0
LINE
5
120
100
AcDbEntity
8
0
100
AcDbLine
10
127.19498324473926
20
-11.378180111144399
30
0
11
106.61232552361946
21
-15.007397799906641
31
0
0
LINE
5
121
100
AcDbEntity
8
0
100
AcDbLine
10
106.00451503037138
20
-11.560527836125063
30
0
11
87.244333117366978
21
-14.868640860921863
31
0
0
LINE
5
122
100
AcDbEntity
8
0
100
AcDbLine
10
86.636561674523605
20
-11.421740549746906
30
0
11
75.61431366637693
21
-13.365228022700624
31
0
0
LINE
5
123
100
AcDbEntity
8
0
100
AcDbLine
10
-71.561986333622983
20
-13.364670352567224
30
0
11
-82.580415321078675
21
-11.421827879375863
31
0
0
LINE
5
124
100
AcDbEntity
8
0
100
AcDbLine
10
-83.188176220862459
20
-14.868618037622763
30
0
11
-101.9487676248521
21
-11.560633390884538
31
0
0
LINE
5
125
100
AcDbEntity
8
0
100
AcDbLine
10
-102.55652644864126
20
-15.007419329422774
30
0
11
-123.13898113082368
21
-11.378184417203761
31
0
0
LINE
5
126
100
AcDbEntity
8
0
100
AcDbLine
10
-112.89374778914735
20
46.725436465882936
30
0
11
-94.133194362608791
21
43.417419022640765
31
0
0
LINE
5
127
100
AcDbEntity
8
0
100
AcDbLine
10
-16.053391967022996
20
36.757832910696408
30
0
11
-16.661156424842638
21
33.311022573785671
31
0
0
LINE
5
128
100
AcDbEntity
8
0
100
AcDbLine
10
20.108647102635793
20
36.757939132296976
30
0
11
20.71642664588882
21
33.311118782701335
31
0
0
LINE
5
129
100
AcDbEntity
8
0
100
AcDbLine
10
116.94930094785067
20
46.725428583597534
30
0
11
127.19498324473926
21
-11.378180111144399
31
0
0
LINE
5
130
100
AcDbEntity
8
0
100
AcDbLine
10
106.61232552361946
20
-15.007397799906641
30
0
11
106.00451503037138
21
-11.560527836125063
31
0
0
LINE
5
131
100
AcDbEntity
8
0
100
AcDbLine
10
87.244333117366978
20
-14.868640860921863
30
0
11
86.636561674523605
21
-11.421740549746906
31
0
0
LINE
5
132
100
AcDbEntity
8
0
100
AcDbLine
10
-112.89374778914735
20
46.725436465882936
30
0
11
-123.13898113082368
21
-11.378184417203761
31
0
0
LINE
5
133
100
AcDbEntity
8
0
100
AcDbLine
10
63.664313666376948
20
-34.287724532221986
30
0
11
75.61431366637693
21
-34.287724532221986
31
0
0
LINE
5
134
100
AcDbEntity
8
0
100
AcDbLine
10
75.61431366637693
20
-13.365228022700624
30
0
11
75.61431366637693
21
-34.287724532221986
31
0
0
LINE
5
135
100
AcDbEntity
8
0
100
AcDbLine
10
-71.561986333622983
20
-34.290524532222015
30
0
11
-59.611986333623008
21
-34.290524532222015
31
0
0
LINE
5
136
100
AcDbEntity
8
0
100
AcDbLine
10
-71.561986333622983
20
-34.290524532222015
30
0
11
-71.561986333622983
21
-13.364670352567224
31
0
0
LINE
5
137
100
AcDbEntity
8
0
100
AcDbLine
10
-102.55652644864126
20
-15.007419329422774
30
0
11
-101.9487676248521
21
-11.560633390884538
31
0
0
LINE
5
138
100
AcDbEntity
8
0
100
AcDbLine
10
-83.188176220862459
20
-14.868618037622763
30
0
11
-82.580415321078675
21
-11.421827879375863
31
0
0
LINE
5
139
100
AcDbEntity
8
0
100
AcDbLine
10
-46.135300875946719
20
-42.382819685499157
30
0
11
-59.611986333623008
21
-34.290524532222015
31
0
0
LINE
5
140
100
AcDbEntity
8
0
100
AcDbLine
10
50.186780504803693
20
-42.384232274928699
30
0
11
63.664313666376948
21
-34.287724532221986
31
0
0
CIRCLE
5
141
100
AcDbEntity
8
0
100
AcDbCircle
10
123.04251435285889
20
53.677053348207764
30
0
40
1.8500000000000041
210
0
220
0
230
1
0
CIRCLE
5
142
100
AcDbEntity
8
0
100
AcDbCircle
10
37.028973485069045
20
54.145049761199573
30
0
40
1.8500000000000005
210
0
220
0
230
1
0
CIRCLE
5
143
100
AcDbEntity
8
0
100
AcDbCircle
10
135.41218484406127
20
-17.148883841465668
30
0
40
1.8500000000000008
210
0
220
0
230
1
0
CIRCLE
5
144
100
AcDbEntity
8
0
100
AcDbCircle
10
-131.42577529060705
20
-17.143950469947708
30
0
40
1.8500000000000005
210
0
220
0
230
1
0
CIRCLE
5
145
100
AcDbEntity
8
0
100
AcDbCircle
10
79.709332700120797
20
-41.422299023156135
30
0
40
1.8500000000000016
210
0
220
0
230
1
0
CIRCLE
5
146
100
AcDbEntity
8
0
100
AcDbCircle
10
-75.68692742462504
20
-41.422299023156114
30
0
40
1.8500000000000014
210
0
220
0
230
1
0
CIRCLE
5
147
100
AcDbEntity
8
0
100
AcDbCircle
10
-118.99451485211678
20
53.645088420525688
30
0
40
1.850000000000005
210
0
220
0
230
1
0
CIRCLE
5
148
100
AcDbEntity
8
0
100
AcDbCircle
10
-32.971026514930941
20
54.145049761199573
30
0
40
1.8500000000000005
210
0
220
0
230
1
0
LINE
5
149
100
AcDbEntity
8
0
100
AcDbLine
10
-25.947416091578216
20
-48.792013909247046
30
0
11
29.999517812774656
21
-48.793407614747892
31
0
0
LINE
5
150
100
AcDbEntity
8
0
100
AcDbLine
10
29.999517812774656
20
-48.793407614747892
30
0
11
50.186780504803693
21
-42.384232274928699
31
0
0
LINE
5
151
100
AcDbEntity
8
0
100
AcDbLine
10
-46.135300875946719
20
-42.382819685499157
30
0
11
-25.947416091578216
21
-48.792013909247046
31
0
0
ENDSEC
0
SECTION
2
OBJECTS
0
DICTIONARY
5
C
100
AcDbDictionary
3
ACAD_GROUP
350
D
3
ACAD_MLINESTYLE
350
17
0
DICTIONARY
5
D
100
AcDbDictionary
0
DICTIONARY
5
1A
330
C
100
AcDbDictionary
0
DICTIONARY
5
17
100
AcDbDictionary
0
ENDSEC
0
EOF
