0
SECTION
2
HEADER
9
$INSUNITS
70
4
9
$ACADVER
1
AC1014
9
$HANDSEED
5
FFFF
0
ENDSEC
0
SECTION
2
TABLES
0
TABLE
2
VPORT
5
8
100
AcDbSymbolTable
0
ENDTAB
0
TABLE
2
LTYPE
5
5
100
AcDbSymbolTable
0
LTYPE
5
14
100
AcDbSymbolTableRecord
100
AcDbLinetypeTableRecord
2
BYBLOCK
70
0
0
LTYPE
5
15
100
AcDbSymbolTableRecord
100
AcDbLinetypeTableRecord
2
BYLAYER
70
0
0
ENDTAB
0
TABLE
2
LAYER
5
2
100
AcDbSymbolTable
70
2
0
LAYER
5
50
100
AcDbSymbolTableRecord
100
AcDbLayerTableRecord
2
0
70
0
6
CONTINUOUS
0
ENDTAB
0
TABLE
2
STYLE
5
3
100
AcDbSymbolTable
70
1
0
STYLE
5
11
100
AcDbSymbolTableRecord
100
AcDbTextStyleTableRecord
2
STANDARD
70
0
0
ENDTAB
0
TABLE
2
VIEW
5
6
100
AcDbSymbolTable
70
0
0
ENDTAB
0
TABLE
2
UCS
5
7
100
AcDbSymbolTable
70
0
0
ENDTAB
0
TABLE
2
APPID
5
9
100
AcDbSymbolTable
70
2
0
APPID
5
12
100
AcDbSymbolTableRecord
100
AcDbRegAppTableRecord
2
ACAD
70
0
0
ENDTAB
0
TABLE
2
DIMSTYLE
5
A
100
AcDbSymbolTable
70
1
0
ENDTAB
0
TABLE
2
BLOCK_RECORD
5
1
100
AcDbSymbolTable
70
1
0
BLOCK_RECORD
5
1F
100
AcDbSymbolTableRecord
100
AcDbBlockTableRecord
2
*MODEL_SPACE
0
BLOCK_RECORD
5
1B
100
AcDbSymbolTableRecord
100
AcDbBlockTableRecord
2
*PAPER_SPACE
0
ENDTAB
0
ENDSEC
0
SECTION
2
BLOCKS
0
BLOCK
5
20
100
AcDbEntity
100
AcDbBlockBegin
2
*MODEL_SPACE
0
ENDBLK
5
21
100
AcDbEntity
100
AcDbBlockEnd
0
BLOCK
5
1C
100
AcDbEntity
100
AcDbBlockBegin
2
*PAPER_SPACE
0
ENDBLK
5
1D
100
AcDbEntity
100
AcDbBlockEnd
0
ENDSEC
0
SECTION
2
ENTITIES
0
LWPOLYLINE
5
100
100
AcDbEntity
8
0
100
AcDbPolyline
90
4
70
1
43
0.0
10
-39.518486333622974
20
3.8830754677779611
10
-37.104886333623014
20
17.571875467777961
10
-23.415986333623028
20
15.158175467777966
10
-25.829686333623002
20
1.4693754677779869
0
LWPOLYLINE
5
101
100
AcDbEntity
8
0
100
AcDbPolyline
90
4
70
1
43
0.0
10
-54.365786333623006
20
29.399575467777936
10
-51.952086333623001
20
43.088405467777932
10
-38.263186333623011
20
40.674685467777934
10
-40.67688633362301
20
26.985875467777937
0
LWPOLYLINE
5
102
100
AcDbEntity
8
0
100
AcDbPolyline
90
4
70
1
43
0.0
10
-51.161986333623005
20
-30.790524532222019
10
-65.061986333622983
20
-30.790524532222019
10
-65.061986333622983
20
-16.890524532222024
10
-51.161986333622977
20
-16.890524532222024
0
LINE
5
103
100
AcDbEntity
8
0
100
AcDbLine
10
17.765313666376965
20
-44.928024532221983
30
0
11
17.714313666376942
21
-44.978424532221979
31
0
0
LWPOLYLINE
5
104
100
AcDbEntity
8
0
100
AcDbPolyline
90
4
70
1
43
0.0
10
-66.658886333622974
20
-10.675224532222023
10
-80.347686333622974
20
-8.2615245322220154
10
-77.933986333622954
20
5.4272754677779655
10
-64.245186333622982
20
3.0135754677779669
0
LINE
5
105
100
AcDbEntity
8
0
100
AcDbLine
10
8.9863136663769794
20
-43.317924532221959
30
0
11
8.9863136663769794
21
-45.254324532222
31
0
0
LWPOLYLINE
5
106
100
AcDbEntity
8
0
100
AcDbPolyline
90
4
70
1
43
0.0
10
45.900313666376945
20
-39.909324532222001
10
32.474313666376972
20
-43.506824532221984
10
28.876313666376969
20
-30.080524532222004
10
42.30331366637693
20
-26.482924532221972
0
LWPOLYLINE
5
107
100
AcDbEntity
8
0
100
AcDbPolyline
90
4
70
1
43
0.0
10
61.727313666376979
20
10.636875467777971
10
48.038313666376943
20
8.2231754677779634
10
45.624313666376935
20
21.911975467777957
10
59.313313666376942
20
24.325775467777959
0
LINE
5
108
100
AcDbEntity
8
0
100
AcDbLine
10
10.599313666376968
20
-44.975824532222006
30
0
11
10.549313666376978
21
-44.924424532221998
31
0
0
LINE
5
109
100
AcDbEntity
8
0
100
AcDbLine
10
17.488313666376971
20
-29.792524532222
30
0
11
17.558313666376986
21
-29.824124532221994
31
0
0
LINE
5
110
100
AcDbEntity
8
0
100
AcDbLine
10
17.758313666376981
20
-30.028524532222018
30
0
11
17.789313666376945
21
-30.098524532221997
31
0
0
LWPOLYLINE
5
111
100
AcDbEntity
8
0
100
AcDbPolyline
90
4
70
1
43
0.0
10
-24.673686333623014
20
-21.632324532222018
10
-22.259986333623019
20
-7.9435245322220194
10
-8.5711863336229932
20
-10.357224532222027
10
-10.984886333623011
20
-24.046024532221999
0
LINE
5
112
100
AcDbEntity
8
0
100
AcDbLine
10
-4.9201863336230112
20
-45.254324532222
30
0
11
-4.9201863336230112
21
-43.317924532221959
31
0
0
LINE
5
113
100
AcDbEntity
8
0
100
AcDbLine
10
17.316313666376981
20
-29.762124532222014
30
0
11
17.410313666376975
21
-29.770824532222004
31
0
0
LWPOLYLINE
5
114
100
AcDbEntity
8
0
100
AcDbPolyline
90
4
70
1
43
0.0
10
123.14031366637691
20
-8.5391245322220222
10
109.45131366637683
20
-10.952824532222012
10
107.03731366637692
20
2.7359754677779513
10
120.72631366637685
20
5.1496754677779633
0
LWPOLYLINE
5
115
100
AcDbEntity
8
0
100
AcDbPolyline
90
4
70
1
43
0.0
10
81.053313666376852
20
40.395995467777936
10
94.742313666376816
20
42.809695467777935
10
97.155313666376841
20
29.120875467777935
10
83.467313666376896
20
26.707175467777937
0
LINE
5
116
100
AcDbEntity
8
0
100
AcDbLine
10
-13.658186333623023
20
-29.959724532222012
30
0
11
-13.611086333623019
21
-29.906224532221994
31
0
0
LWPOLYLINE
5
117
100
AcDbEntity
8
0
100
AcDbPolyline
90
4
70
1
43
0.0
10
40.266313666376981
20
22.643675467777953
10
26.577313666376966
20
20.229975467777955
10
24.163313666376975
20
33.918875467777944
10
37.852313666376944
20
36.332545467777933
0
LINE
5
118
100
AcDbEntity
8
0
100
AcDbLine
10
10.751313666376969
20
-45.027024532221986
30
0
11
10.665313666376974
21
-45.01192453222199
31
0
0
LINE
5
119
100
AcDbEntity
8
0
100
AcDbLine
10
10.665313666376974
20
-45.01192453222199
30
0
11
10.599313666376968
21
-44.975824532222006
31
0
0
LINE
5
120
100
AcDbEntity
8
0
100
AcDbLine
10
-6.4349863336230051
20
-43.317924532221959
30
0
11
-6.4349863336230051
21
-44.777024532221986
31
0
0
LINE
5
121
100
AcDbEntity
8
0
100
AcDbLine
10
-13.759986333622987
20
-44.777024532222001
30
0
11
-13.759986333622987
21
-40.907624532221988
31
0
0
LWPOLYLINE
5
122
100
AcDbEntity
8
0
100
AcDbPolyline
90
4
70
1
43
0.0
10
6.0108136663769862
20
27.164075467777955
10
19.699313666376934
20
29.577775467777954
10
22.113313666376975
20
15.888875467777961
10
8.4243136663769747
20
13.475175467777966
0
LINE
5
123
100
AcDbEntity
8
0
100
AcDbLine
10
-13.711886333623017
20
-44.924424532221998
30
0
11
-13.746486333623036
21
-44.858224532221982
31
0
0
LINE
5
124
100
AcDbEntity
8
0
100
AcDbLine
10
17.816313666376971
20
-36.017524532221984
30
0
11
18.652313666376976
21
-36.017524532221984
31
0
0
LINE
5
125
100
AcDbEntity
8
0
100
AcDbLine
10
-13.746486333623036
20
-44.858224532221982
30
0
11
-13.759986333622987
21
-44.777024532222001
31
0
0
LINE
5
126
100
AcDbEntity
8
0
100
AcDbLine
10
17.410313666376975
20
-29.770824532222004
30
0
11
17.488313666376971
21
-29.792524532222
31
0
0
LINE
5
127
100
AcDbEntity
8
0
100
AcDbLine
10
10.549313666376978
20
-44.924424532221998
30
0
11
10.514313666376989
21
-44.858224532221982
31
0
0
LINE
5
128
100
AcDbEntity
8
0
100
AcDbLine
10
-13.729586333623018
20
-30.090024532221999
30
0
11
-13.697786333623016
21
-30.020524532222002
31
0
0
LINE
5
129
100
AcDbEntity
8
0
100
AcDbLine
10
17.816313666376971
20
-30.262124532222003
30
0
11
17.816313666376971
21
-36.017524532221984
31
0
0
LINE
5
130
100
AcDbEntity
8
0
100
AcDbLine
10
-13.556986333623016
20
-29.859924532221989
30
0
11
-13.494786333623043
21
-29.820624532222002
31
0
0
LINE
5
131
100
AcDbEntity
8
0
100
AcDbLine
10
8.9863136663769794
20
-45.254324532222
30
0
11
-4.9201863336230112
21
-45.254324532222
31
0
0
LWPOLYLINE
5
132
100
AcDbEntity
8
0
100
AcDbPolyline
90
4
70
1
43
0.0
10
114.1103136663769
20
42.670855467777933
10
116.52431366637684
20
28.982075467777957
10
102.83531366637688
20
26.568375467777969
10
100.42131366637692
20
40.257155467777935
0
LINE
5
133
100
AcDbEntity
8
0
100
AcDbLine
10
18.652313666376976
20
-40.907624532221988
30
0
11
17.816313666376971
21
-40.907624532221988
31
0
0
LINE
5
134
100
AcDbEntity
8
0
100
AcDbLine
10
-13.494786333623043
20
-29.820624532222002
30
0
11
-13.425086333623044
21
-29.790024532222006
31
0
0
LINE
5
135
100
AcDbEntity
8
0
100
AcDbLine
10
17.719313666376934
20
-29.966324532222011
30
0
11
17.758313666376981
21
-30.028524532222018
31
0
0
LINE
5
136
100
AcDbEntity
8
0
100
AcDbLine
10
18.652313666376976
20
-36.017524532221984
30
0
11
18.652313666376976
21
-40.907624532221988
31
0
0
LINE
5
137
100
AcDbEntity
8
0
100
AcDbLine
10
-13.509986333623019
20
-45.027024532221986
30
0
11
-13.59558633362302
21
-45.01192453222199
31
0
0
LINE
5
138
100
AcDbEntity
8
0
100
AcDbLine
10
-13.661486333622985
20
-44.975824532222006
30
0
11
-13.711886333623017
21
-44.924424532221998
31
0
0
LINE
5
139
100
AcDbEntity
8
0
100
AcDbLine
10
17.566313666376967
20
-45.027024532221986
30
0
11
10.751313666376969
21
-45.027024532221986
31
0
0
LINE
5
140
100
AcDbEntity
8
0
100
AcDbLine
10
-14.595286333623012
20
-40.907624532221988
30
0
11
-14.595286333623012
21
-36.017524532221984
31
0
0
LINE
5
141
100
AcDbEntity
8
0
100
AcDbLine
10
17.809313666376934
20
-30.178624532221985
30
0
11
17.816313666376971
21
-30.262124532222003
31
0
0
LINE
5
142
100
AcDbEntity
8
0
100
AcDbLine
10
17.673313666376966
20
-29.912024532222006
30
0
11
17.719313666376934
21
-29.966324532222011
31
0
0
LWPOLYLINE
5
143
100
AcDbEntity
8
0
100
AcDbPolyline
90
4
70
1
43
0.0
10
25.421313666376971
20
-2.8717245322220109
10
11.732313666376974
20
-5.2854245322220201
10
9.3183136663769695
20
8.4034754677779624
10
23.00731366637697
20
10.817175467777966
0
LWPOLYLINE
5
144
100
AcDbEntity
8
0
100
AcDbPolyline
90
4
70
1
43
0.0
10
44.468313666376943
20
-1.1886245322220246
10
46.88231366637693
20
-14.877424532222001
10
33.193313666376966
20
-17.291124532222018
10
30.77931366637694
20
-3.6023245322220188
0
LWPOLYLINE
5
145
100
AcDbEntity
8
0
100
AcDbPolyline
90
4
70
1
43
0.0
10
-1.9551863336230291
20
27.163975467777952
10
-4.3688863336230099
20
13.475175467777966
10
-18.05768633362301
20
15.888875467777961
10
-15.643986333623019
20
29.577675467777958
0
LWPOLYLINE
5
146
100
AcDbEntity
8
0
100
AcDbPolyline
90
4
70
1
43
0.0
10
119.83231366637693
20
10.221475467777964
10
106.14331366637687
20
7.8077754677779598
10
103.7293136663769
20
21.496575467777966
10
117.41831366637692
20
23.910275467777957
0
LWPOLYLINE
5
147
100
AcDbEntity
8
0
100
AcDbPolyline
90
4
70
1
43
0.0
10
-5.2631863336230111
20
8.4033754677779626
10
-7.6768863336230115
20
-5.2854245322220201
10
-21.365686333623017
20
-2.8717245322220109
10
-18.951986333623012
20
10.81707546777797
0
LWPOLYLINE
5
148
100
AcDbEntity
8
0
100
AcDbPolyline
90
4
70
1
43
0.0
10
58.419313666376915
20
29.397475467777944
10
44.730313666376972
20
26.983775467777953
10
42.317313666376968
20
40.672615467777938
10
56.005313666376935
20
43.086315467777936
0
LINE
5
149
100
AcDbEntity
8
0
100
AcDbLine
10
-14.595286333623012
20
-36.017524532221984
30
0
11
-13.759986333622987
21
-36.017524532221984
31
0
0
LINE
5
150
100
AcDbEntity
8
0
100
AcDbLine
10
-13.759986333622987
20
-40.907624532221988
30
0
11
-14.595286333623012
21
-40.907624532221988
31
0
0
LINE
5
151
100
AcDbEntity
8
0
100
AcDbLine
10
-13.59558633362302
20
-45.01192453222199
30
0
11
-13.661486333622985
21
-44.975824532222006
31
0
0
LINE
5
152
100
AcDbEntity
8
0
100
AcDbLine
10
10.501313666376983
20
-43.317924532221959
30
0
11
8.9863136663769794
21
-43.317924532221959
31
0
0
LINE
5
153
100
AcDbEntity
8
0
100
AcDbLine
10
-13.344986333623014
20
-29.76932453222199
30
0
11
-13.259986333623017
21
-29.762124532222014
31
0
0
LINE
5
154
100
AcDbEntity
8
0
100
AcDbLine
10
-13.751486333623006
20
-30.169824532222016
30
0
11
-13.729586333623018
21
-30.090024532221999
31
0
0
LINE
5
155
100
AcDbEntity
8
0
100
AcDbLine
10
17.620313666376983
20
-29.864624532222006
30
0
11
17.673313666376966
21
-29.912024532222006
31
0
0
LINE
5
156
100
AcDbEntity
8
0
100
AcDbLine
10
-6.6849863336230104
20
-45.027024532221986
30
0
11
-13.509986333623019
21
-45.027024532221986
31
0
0
LINE
5
157
100
AcDbEntity
8
0
100
AcDbLine
10
10.501313666376983
20
-44.777024532222001
30
0
11
10.501313666376983
21
-43.317924532221959
31
0
0
LWPOLYLINE
5
158
100
AcDbEntity
8
0
100
AcDbPolyline
90
4
70
1
43
0.0
10
-63.350886333622967
20
8.0853754677779932
10
-77.039686333622967
20
10.499075467777965
10
-74.625986333622976
20
24.187875467777964
10
-60.937186333622989
20
21.774175467777937
0
LWPOLYLINE
5
159
100
AcDbEntity
8
0
100
AcDbPolyline
90
4
70
1
43
0.0
10
69.114313666376944
20
-30.787724532221983
10
55.21431366637696
20
-30.787724532221983
10
55.21431366637696
20
-16.887724532221995
10
69.114313666376944
20
-16.887724532221995
0
LWPOLYLINE
5
160
100
AcDbEntity
8
0
100
AcDbPolyline
90
4
70
1
43
0.0
10
-96.408086333622975
20
10.360275467777967
10
-93.994366333622935
20
24.049075467777961
10
-80.305586333622955
20
21.635375467777962
10
-82.719286333622946
20
7.9465754677779854
0
LWPOLYLINE
5
161
100
AcDbEntity
8
0
100
AcDbPolyline
90
4
70
1
43
0.0
10
-42.826586333622998
20
-14.877524532222015
10
-40.412886333622993
20
-1.1887245322220319
10
-26.72398633362301
20
-3.6024245322220239
10
-29.137686333623002
20
-17.291224532222024
0
LINE
5
162
100
AcDbEntity
8
0
100
AcDbLine
10
-6.6030863336230183
20
-45.013224532221997
30
0
11
-6.6849863336230104
21
-45.027024532221986
31
0
0
LINE
5
163
100
AcDbEntity
8
0
100
AcDbLine
10
17.648313666376989
20
-45.013224532221997
30
0
11
17.566313666376967
21
-45.027024532221986
31
0
0
LINE
5
164
100
AcDbEntity
8
0
100
AcDbLine
10
-6.4349863336230051
20
-44.777024532221986
30
0
11
-6.4349863336230051
21
-44.777024532221986
31
0
0
LINE
5
165
100
AcDbEntity
8
0
100
AcDbLine
10
-6.5369863336229974
20
-44.978424532221979
30
0
11
-6.6030863336230183
21
-45.013224532221997
31
0
0
LINE
5
166
100
AcDbEntity
8
0
100
AcDbLine
10
-6.4349863336230051
20
-44.777024532221986
30
0
11
-6.4500863336229841
21
-44.862624532221993
31
0
0
LINE
5
167
100
AcDbEntity
8
0
100
AcDbLine
10
17.714313666376942
20
-44.978424532221979
30
0
11
17.648313666376989
21
-45.013224532221997
31
0
0
LINE
5
168
100
AcDbEntity
8
0
100
AcDbLine
10
10.514313666376989
20
-44.858224532221982
30
0
11
10.501313666376983
21
-44.777024532222001
31
0
0
LINE
5
169
100
AcDbEntity
8
0
100
AcDbLine
10
-13.697786333623016
20
-30.020524532222002
30
0
11
-13.658186333623023
21
-29.959724532222012
31
0
0
LINE
5
170
100
AcDbEntity
8
0
100
AcDbLine
10
-13.759986333622987
20
-30.262124532222003
30
0
11
-13.751486333623006
21
-30.169824532222016
31
0
0
LWPOLYLINE
5
171
100
AcDbEntity
8
0
100
AcDbPolyline
90
4
70
1
43
0.0
10
103.77131366637691
20
-8.4003245322220188
10
90.083313666376839
20
-10.814024532222026
10
87.669313666376866
20
2.874775467777968
10
101.35831366637686
20
5.2884754677779489
0
LINE
5
172
100
AcDbEntity
8
0
100
AcDbLine
10
-13.759986333622987
20
-36.017524532221984
30
0
11
-13.759986333622987
21
-30.262124532222003
31
0
0
LINE
5
173
100
AcDbEntity
8
0
100
AcDbLine
10
-13.611086333623019
20
-29.906224532221994
30
0
11
-13.556986333623016
21
-29.859924532221989
31
0
0
LWPOLYLINE
5
174
100
AcDbEntity
8
0
100
AcDbPolyline
90
4
70
1
43
0.0
10
84.361313666376901
20
21.635375467777969
10
98.050313666376852
20
24.049075467777953
10
100.46331366637689
20
10.360275467777967
10
86.775313666376945
20
7.9465754677779543
0
LINE
5
175
100
AcDbEntity
8
0
100
AcDbLine
10
17.558313666376986
20
-29.824124532221994
30
0
11
17.620313666376983
21
-29.864624532222006
31
0
0
LWPOLYLINE
5
176
100
AcDbEntity
8
0
100
AcDbPolyline
90
4
70
1
43
0.0
10
-36.210586333623006
20
22.643675467777967
10
-33.796786333622997
20
36.332485467777964
10
-20.107986333622989
20
33.918775467777955
10
-22.521686333623027
20
20.229975467777955
0
LINE
5
177
100
AcDbEntity
8
0
100
AcDbLine
10
-6.4857863336230182
20
-44.928024532221983
30
0
11
-6.5369863336229974
21
-44.978424532221979
31
0
0
LINE
5
178
100
AcDbEntity
8
0
100
AcDbLine
10
-13.425086333623044
20
-29.790024532222006
30
0
11
-13.344986333623014
21
-29.76932453222199
31
0
0
LINE
5
179
100
AcDbEntity
8
0
100
AcDbLine
10
17.789313666376945
20
-30.098524532221997
30
0
11
17.809313666376934
21
-30.178624532221985
31
0
0
LINE
5
180
100
AcDbEntity
8
0
100
AcDbLine
10
-4.9201863336230112
20
-43.317924532221959
30
0
11
-6.4349863336230051
21
-43.317924532221959
31
0
0
LWPOLYLINE
5
181
100
AcDbEntity
8
0
100
AcDbPolyline
90
4
70
1
43
0.0
10
-57.673786333622978
20
10.638975467777968
10
-55.260086333622986
20
24.327775467777954
10
-41.571186333623011
20
21.91407546777797
10
-43.984886333623017
20
8.2252754677779869
0
LINE
5
182
100
AcDbEntity
8
0
100
AcDbLine
10
17.816313666376971
20
-40.907624532221988
30
0
11
17.816313666376971
21
-44.777024532222001
31
0
0
LWPOLYLINE
5
183
100
AcDbEntity
8
0
100
AcDbPolyline
90
4
70
1
43
0.0
10
-105.39558633362296
20
-10.952824532222012
10
-119.08438633362293
20
-8.5391245322220222
10
-116.67068633362297
20
5.1496754677779633
10
-102.98188633362294
20
2.7359754677779669
0
LWPOLYLINE
5
184
100
AcDbEntity
8
0
100
AcDbPolyline
90
4
70
1
43
0.0
10
-47.292886333623017
20
-10.535324532222008
10
-60.981786333622992
20
-8.1216245322220182
10
-58.568086333622979
20
5.5671754677779672
10
-44.879186333623018
20
3.1534754677779642
0
LWPOLYLINE
5
185
100
AcDbEntity
8
0
100
AcDbPolyline
90
4
70
1
43
0.0
10
-73.731686333622946
20
29.259675467777939
10
-71.317986333622969
20
42.948485467777964
10
-57.629186333622982
20
40.534785467777937
10
-60.042886333622988
20
26.845975467777954
0
LWPOLYLINE
5
186
100
AcDbEntity
8
0
100
AcDbPolyline
90
4
70
1
43
0.0
10
-99.716066333622933
20
-8.4003245322220188
10
-97.302366333622956
20
5.2884754677779666
10
-83.61353633362296
20
2.874775467777968
10
-86.027236333622938
20
-10.814024532222009
0
LWPOLYLINE
5
187
100
AcDbEntity
8
0
100
AcDbPolyline
90
4
70
1
43
0.0
10
48.932313666376942
20
3.1514754677779599
10
62.621313666376977
20
5.565175467777971
10
65.035313666376936
20
-8.1236245322220153
10
51.346313666376979
20
-10.537424532222026
0
LWPOLYLINE
5
188
100
AcDbEntity
8
0
100
AcDbPolyline
90
4
70
1
43
0.0
10
-110.05468633362297
20
42.670835467777941
10
-96.365906333622945
20
40.257115467777936
10
-98.779606333622951
20
26.568275467777937
10
-112.46838633362293
20
28.981975467777936
0
LWPOLYLINE
5
189
100
AcDbEntity
8
0
100
AcDbPolyline
90
4
70
1
43
0.0
10
61.684313666376966
20
40.534815467777932
10
75.37331366637693
20
42.94853546777793
10
77.787313666376946
20
29.259675467777939
10
64.098313666376981
20
26.845975467777954
0
LWPOLYLINE
5
190
100
AcDbEntity
8
0
100
AcDbPolyline
90
4
70
1
43
0.0
10
64.992313666376958
20
21.774275467777958
10
78.681313666376923
20
24.187975467777967
10
81.095313666376953
20
10.499075467777953
10
67.406313666376917
20
8.0853754677779932
0
LWPOLYLINE
5
191
100
AcDbEntity
8
0
100
AcDbPolyline
90
4
70
1
43
0.0
10
-24.824786333622999
20
-30.079124532221986
10
-28.422286333622992
20
-43.505424532222037
10
-41.848686333623007
20
-39.907924532221983
10
-38.251086333623007
20
-26.481524532221972
0
LWPOLYLINE
5
192
100
AcDbEntity
8
0
100
AcDbPolyline
90
4
70
1
43
0.0
10
15.040313666376974
20
-24.046024532221999
10
12.626313666376969
20
-10.357124532222022
10
26.315313666376934
20
-7.9434245322220409
10
28.729313666376939
20
-21.632324532222018
0
LWPOLYLINE
5
193
100
AcDbEntity
8
0
100
AcDbPolyline
90
4
70
1
43
0.0
10
29.885313666376927
20
1.4694754677779831
10
27.471313666376986
20
15.158275467777971
10
41.160313666376922
20
17.571975467777968
10
43.574313666376945
20
3.8831754677779617
0
LINE
5
194
100
AcDbEntity
8
0
100
AcDbLine
10
17.816313666376971
20
-44.777024532222001
30
0
11
17.80131366637697
21
-44.862624532221993
31
0
0
LINE
5
195
100
AcDbEntity
8
0
100
AcDbLine
10
-6.4500863336229841
20
-44.862624532221993
30
0
11
-6.4857863336230182
21
-44.928024532221983
31
0
0
LWPOLYLINE
5
196
100
AcDbEntity
8
0
100
AcDbPolyline
90
4
70
1
43
0.0
10
-93.100083333622976
20
29.120775467777953
10
-90.686366333622956
20
42.809655467777965
10
-76.997486333622973
20
40.395955467777938
10
-79.411286333622954
20
26.707075467777965
0
LWPOLYLINE
5
197
100
AcDbEntity
8
0
100
AcDbPolyline
90
4
70
1
43
0.0
10
84.403313666376903
20
-8.2615245322220421
10
70.71431366637691
20
-10.675224532222023
10
68.300313666376965
20
3.0136754677779498
10
81.989313666376887
20
5.4273754677779484
0
LWPOLYLINE
5
198
100
AcDbEntity
8
0
100
AcDbPolyline
90
4
70
1
43
0.0
10
-115.77638633362291
20
10.221375467777968
10
-113.36268633362295
20
23.910275467777975
10
-99.67388633362296
20
21.496475467777969
10
-102.08760633362296
20
7.8076754677779681
0
LINE
5
199
100
AcDbEntity
8
0
100
AcDbLine
10
17.80131366637697
20
-44.862624532221993
30
0
11
17.765313666376965
21
-44.928024532221983
31
0
0
LWPOLYLINE
5
200
100
AcDbEntity
8
0
100
AcDbPolyline
90
32
70
1
43
0.0
10
-100.66715809737929
20
-25.871412702676963
10
-93.636348639880808
20
-24.3887343266919
10
-83.06789707662432
20
-26.280539716970146
42
-0.36323541872472981
10
-79.772713862251948
20
-30.217954261909181
10
-79.772713862251948
20
-41.508085460783022
42
0.4142135623730937
10
-75.772713862251933
20
-45.508085460783022
10
-57.688798107972382
20
-45.508085460783022
10
-56.675012648826623
20
-48.119546695503281
10
-51.821829027923762
20
-52.469980993685212
10
-23.812239678751812
20
-59.955847460783005
10
27.871795793888463
20
-59.955847460783005
10
55.837168767781833
20
-52.468255005733013
10
60.689353736894347
20
-48.113287495042101
10
61.69835059744053
20
-45.508085460783022
10
79.79511913774769
20
-45.508085460783036
42
0.41421356237309631
10
83.79511913774769
20
-41.508085460783036
10
83.79511913774769
20
-30.214153935014618
42
-0.36337793450659717
10
87.092285295847049
20
-26.276384948560594
10
97.67801385862893
20
-24.386988109718342
10
104.66271304664266
20
-25.868411198367607
42
0.096137268046705027
10
109.04387468814988
20
-25.944269442904123
10
127.8338916755648
20
-22.634056992765235
10
136.20620395395858
20
-21.157692115740524
42
0.41421356237309814
10
139.45078839924287
20
-16.523830683045446
10
126.95480527220394
20
54.33959514969898
42
0.36396678962300316
10
123.0155845110495
20
57.644956655992992
10
-118.99451267428148
20
57.645088420525113
42
0.3638293697599867
10
-122.93339938986897
20
54.341643226881224
10
-135.46407428540087
20
-16.516932642909264
42
0.41421356237309659
10
-132.22174455400423
20
-21.152371987016952
10
-123.84451577787445
20
-22.633806365716186
10
-105.03365418316315
20
-25.944795271075485
42
0.095808538670327112
0
CIRCLE
5
201
100
AcDbEntity
8
0
100
AcDbCircle
10
135.41218484406127
20
-17.148883841465668
30
0
40
1.8500000000000008
210
0
220
0
230
1
0
CIRCLE
5
202
100
AcDbEntity
8
0
100
AcDbCircle
10
-131.42577529060705
20
-17.143950469947708
30
0
40
1.8500000000000005
210
0
220
0
230
1
0
CIRCLE
5
203
100
AcDbEntity
8
0
100
AcDbCircle
10
-118.99451485211678
20
53.645088420525688
30
0
40
1.850000000000005
210
0
220
0
230
1
0
CIRCLE
5
204
100
AcDbEntity
8
0
100
AcDbCircle
10
79.709332700120797
20
-41.422299023156135
30
0
40
1.8500000000000016
210
0
220
0
230
1
0
CIRCLE
5
205
100
AcDbEntity
8
0
100
AcDbCircle
10
37.028973485069045
20
54.145049761199573
30
0
40
1.8500000000000005
210
0
220
0
230
1
0
CIRCLE
5
206
100
AcDbEntity
8
0
100
AcDbCircle
10
123.04251435285889
20
53.677053348207764
30
0
40
1.8500000000000041
210
0
220
0
230
1
0
CIRCLE
5
207
100
AcDbEntity
8
0
100
AcDbCircle
10
-75.68692742462504
20
-41.422299023156114
30
0
40
1.8500000000000014
210
0
220
0
230
1
0
CIRCLE
5
208
100
AcDbEntity
8
0
100
AcDbCircle
10
-32.971026514930941
20
54.145049761199573
30
0
40
1.8500000000000005
210
0
220
0
230
1
0
LINE
5
209
100
AcDbEntity
8
0
100
AcDbLine
10
-13.259986333623017
20
-29.762124532222014
30
0
11
17.316313666376981
21
-29.762124532222014
31
0
0
ENDSEC
0
SECTION
2
OBJECTS
0
DICTIONARY
5
C
100
AcDbDictionary
3
ACAD_GROUP
350
D
3
ACAD_MLINESTYLE
350
17
0
DICTIONARY
5
D
100
AcDbDictionary
0
DICTIONARY
5
1A
330
C
100
AcDbDictionary
0
DICTIONARY
5
17
100
AcDbDictionary
0
ENDSEC
0
EOF
