0
SECTION
2
HEADER
9
$INSUNITS
70
4
9
$ACADVER
1
AC1014
9
$HANDSEED
5
FFFF
0
ENDSEC
0
SECTION
2
TABLES
0
TABLE
2
VPORT
5
8
100
AcDbSymbolTable
0
ENDTAB
0
TABLE
2
LTYPE
5
5
100
AcDbSymbolTable
0
LTYPE
5
14
100
AcDbSymbolTableRecord
100
AcDbLinetypeTableRecord
2
BYBLOCK
70
0
0
LTYPE
5
15
100
AcDbSymbolTableRecord
100
AcDbLinetypeTableRecord
2
BYLAYER
70
0
0
ENDTAB
0
TABLE
2
LAYER
5
2
100
AcDbSymbolTable
70
2
0
LAYER
5
50
100
AcDbSymbolTableRecord
100
AcDbLayerTableRecord
2
0
70
0
6
CONTINUOUS
0
ENDTAB
0
TABLE
2
STYLE
5
3
100
AcDbSymbolTable
70
1
0
STYLE
5
11
100
AcDbSymbolTableRecord
100
AcDbTextStyleTableRecord
2
STANDARD
70
0
0
ENDTAB
0
TABLE
2
VIEW
5
6
100
AcDbSymbolTable
70
0
0
ENDTAB
0
TABLE
2
UCS
5
7
100
AcDbSymbolTable
70
0
0
ENDTAB
0
TABLE
2
APPID
5
9
100
AcDbSymbolTable
70
2
0
APPID
5
12
100
AcDbSymbolTableRecord
100
AcDbRegAppTableRecord
2
ACAD
70
0
0
ENDTAB
0
TABLE
2
DIMSTYLE
5
A
100
AcDbSymbolTable
70
1
0
ENDTAB
0
TABLE
2
BLOCK_RECORD
5
1
100
AcDbSymbolTable
70
1
0
BLOCK_RECORD
5
1F
100
AcDbSymbolTableRecord
100
AcDbBlockTableRecord
2
*MODEL_SPACE
0
BLOCK_RECORD
5
1B
100
AcDbSymbolTableRecord
100
AcDbBlockTableRecord
2
*PAPER_SPACE
0
ENDTAB
0
ENDSEC
0
SECTION
2
BLOCKS
0
BLOCK
5
20
100
AcDbEntity
100
AcDbBlockBegin
2
*MODEL_SPACE
0
ENDBLK
5
21
100
AcDbEntity
100
AcDbBlockEnd
0
BLOCK
5
1C
100
AcDbEntity
100
AcDbBlockBegin
2
*PAPER_SPACE
0
ENDBLK
5
1D
100
AcDbEntity
100
AcDbBlockEnd
0
ENDSEC
0
SECTION
2
ENTITIES
0
LWPOLYLINE
5
100
100
AcDbEntity
8
0
100
AcDbPolyline
90
64
70
1
43
0.0
10
107.82946681711252
20
-19.050416128230566
42
-0.096138630118897617
10
106.11507385061537
20
-19.02073654962124
10
97.793453355282367
20
-17.255758501902484
10
76.79511913774769
20
-21.003652287036239
10
76.79511913774769
20
-38.508085460783036
10
56.902786307304623
20
-38.508085460783022
10
54.76690021411973
20
-44.022884378887454
10
52.408359954554982
20
-46.139738181544473
10
26.950906257784819
20
-52.955847460782977
10
-22.892959287646715
20
-52.955847460782977
10
-48.396481370613785
20
-46.139754644362796
10
-50.755556581963262
20
-44.02505993814102
10
-52.897280314738857
20
-38.508085460783022
10
-72.772713862251933
20
-38.508085460783022
10
-72.772713862251933
20
-21.012163267743663
10
-93.745847424450517
20
-17.257868053680447
10
-102.1115830327235
20
-19.022059696271342
42
-0.095807888211395603
10
-103.82020468354297
20
-19.050773200333925
10
-122.62830537744804
20
-15.740270254211129
10
-128.04861023956795
20
-14.781740150717297
10
-116.4784891773968
20
50.645087050652897
10
-1.4487974363262699
20
50.645024421722567
42
0.49765475692391081
10
-0.4867205397102603
20
51.917804722733926
10
-1.6981946777691517
20
56.190586207154674
42
0.33542125830646569
10
-3.6223462931658901
20
57.645025605131472
10
-118.99451267428148
20
57.645088420525113
42
0.36382936975998381
10
-122.93339938986897
20
54.341643226881224
10
-135.46407428540084
20
-16.516932642909264
42
0.4142135623730997
10
-132.22174455400423
20
-21.152371987016952
10
-123.84451577787445
20
-22.633806365716186
10
-105.03365418316318
20
-25.944795271075488
42
0.0958085386703251
10
-100.66715809737929
20
-25.871412702676967
10
-93.636348639880808
20
-24.388734326691903
10
-83.06789707662432
20
-26.280539716970143
42
-0.36323541872473014
10
-79.772713862251948
20
-30.217954261909181
10
-79.772713862251948
20
-41.508085460783022
42
0.4142135623730937
10
-75.772713862251933
20
-45.508085460783022
10
-57.688798107972382
20
-45.508085460783022
10
-56.675012648826623
20
-48.119546695503281
10
-51.821829027923762
20
-52.469980993685212
10
-23.812239678751812
20
-59.955847460783005
10
27.871795793888463
20
-59.955847460783005
10
55.837168767781833
20
-52.468255005733013
10
60.689353736894347
20
-48.113287495042101
10
61.69835059744053
20
-45.508085460783022
10
79.79511913774769
20
-45.508085460783043
42
0.4142135623730957
10
83.79511913774769
20
-41.508085460783036
10
83.79511913774769
20
-30.214153935014618
42
-0.36337793450659539
10
87.092285295847049
20
-26.276384948560594
10
97.67801385862893
20
-24.386988109718342
10
104.66271304664266
20
-25.868411198367607
42
0.096137268046705027
10
109.04387468814988
20
-25.944269442904123
10
127.8338916755648
20
-22.634056992765235
10
136.20620395395858
20
-21.157692115740517
42
0.41421356237309781
10
139.45078839924287
20
-16.523830683045446
10
126.95480527220397
20
54.33959514969898
42
0.36396678962300438
10
123.01558451104951
20
57.644956655992992
10
18.944317553831134
20
57.645013318512284
42
0.44769070975744257
10
16.957056229928728
20
55.41963195626564
10
17.297295578851838
20
52.419631771018899
42
0.3815105578283971
10
19.284554724918959
20
50.645013133266104
10
120.4983129060964
20
50.64495802654271
10
132.03616938573185
20
-14.785030842787574
10
126.61884357422664
20
-15.740316466347725
0
CIRCLE
5
101
100
AcDbEntity
8
0
100
AcDbCircle
10
-118.99451485211678
20
53.645088420525681
30
0
40
1.850000000000005
210
0
220
0
230
1
0
CIRCLE
5
102
100
AcDbEntity
8
0
100
AcDbCircle
10
123.04251435285889
20
53.677053348207764
30
0
40
1.8500000000000041
210
0
220
0
230
1
0
CIRCLE
5
103
100
AcDbEntity
8
0
100
AcDbCircle
10
-131.42577529060705
20
-17.143950469947708
30
0
40
1.8500000000000005
210
0
220
0
230
1
0
CIRCLE
5
104
100
AcDbEntity
8
0
100
AcDbCircle
10
37.028973485069052
20
54.145049761199573
30
0
40
1.8500000000000005
210
0
220
0
230
1
0
CIRCLE
5
105
100
AcDbEntity
8
0
100
AcDbCircle
10
-32.971026514930941
20
54.145049761199573
30
0
40
1.8500000000000005
210
0
220
0
230
1
0
CIRCLE
5
106
100
AcDbEntity
8
0
100
AcDbCircle
10
135.41218484406127
20
-17.148883841465668
30
0
40
1.8500000000000008
210
0
220
0
230
1
0
CIRCLE
5
107
100
AcDbEntity
8
0
100
AcDbCircle
10
79.709332700120797
20
-41.422299023156135
30
0
40
1.8500000000000016
210
0
220
0
230
1
0
CIRCLE
5
108
100
AcDbEntity
8
0
100
AcDbCircle
10
-75.68692742462504
20
-41.422299023156114
30
0
40
1.8500000000000014
210
0
220
0
230
1
0
LWPOLYLINE
5
109
100
AcDbEntity
8
0
100
AcDbPolyline
90
8
70
1
43
0.0
10
-109.95372239945696
20
48.278641482768208
42
-0.36382936975996982
10
-108.96900072056006
20
49.104502781179171
10
114.14436858492067
20
49.104381305137224
42
-0.3639667896229894
10
115.12917377520922
20
48.278040928563762
10
117.8531953273835
20
32.83039689232853
42
-0.46631199006727597
10
115.88357863696982
20
30.48307764548268
10
-110.71588854411485
20
30.483669174193565
42
-0.46645847835344312
10
-112.6853255920721
20
32.831946577364505
0
CIRCLE
5
110
100
AcDbEntity
8
0
100
AcDbCircle
10
-18.819951627474651
20
44.717894990864536
30
0
40
1.099999999999999
210
0
220
0
230
1
0
CIRCLE
5
111
100
AcDbEntity
8
0
100
AcDbCircle
10
-104.16028189929469
20
44.717894990864536
30
0
40
1.1000000000000032
210
0
220
0
230
1
0
CIRCLE
5
112
100
AcDbEntity
8
0
100
AcDbCircle
10
109.30325230178451
20
44.717894990864536
30
0
40
1.1000000000000032
210
0
220
0
230
1
0
LWPOLYLINE
5
113
100
AcDbEntity
8
0
100
AcDbPolyline
90
12
70
1
43
0.0
10
35.825520053352179
20
28.803144372841235
42
0.82303967588106819
10
40.928442239244127
20
28.803141594510244
10
114.91466046600203
20
28.803101312061088
42
-0.36396678962300444
10
118.85388122715652
20
25.49773980576709
10
125.12977421624899
20
-10.092199204672443
42
-0.46631136125593553
10
121.19054909942403
20
-14.786837698377219
10
-114.49245906940398
20
-14.78670937868451
42
-0.4664591072356567
10
-118.43134142932085
20
-10.090154572329597
10
-112.13759555506606
20
25.499777594459179
42
-0.36382936975998975
10
-108.19870883947863
20
28.80322278810306
10
-34.174487415707759
20
28.803182484962761
42
0.82305220386914435
10
-29.071550291654432
20
28.803179706623627
0
CIRCLE
5
114
100
AcDbEntity
8
0
100
AcDbCircle
10
-103.3899916515897
20
21.416614997788841
30
0
40
1.1000000000000032
210
0
220
0
230
1
0
CIRCLE
5
115
100
AcDbEntity
8
0
100
AcDbCircle
10
110.07354254948949
20
21.416614997788841
30
0
40
1.1000000000000032
210
0
220
0
230
1
0
CIRCLE
5
116
100
AcDbEntity
8
0
100
AcDbCircle
10
-18.04966137976967
20
21.416614997788841
30
0
40
1.099999999999999
210
0
220
0
230
1
0
ENDSEC
0
SECTION
2
OBJECTS
0
DICTIONARY
5
C
100
AcDbDictionary
3
ACAD_GROUP
350
D
3
ACAD_MLINESTYLE
350
17
0
DICTIONARY
5
D
100
AcDbDictionary
0
DICTIONARY
5
1A
330
C
100
AcDbDictionary
0
DICTIONARY
5
17
100
AcDbDictionary
0
ENDSEC
0
EOF
