0
SECTION
2
HEADER
9
$INSUNITS
70
4
9
$ACADVER
1
AC1014
9
$HANDSEED
5
FFFF
0
ENDSEC
0
SECTION
2
TABLES
0
TABLE
2
VPORT
5
8
100
AcDbSymbolTable
0
ENDTAB
0
TABLE
2
LTYPE
5
5
100
AcDbSymbolTable
0
LTYPE
5
14
100
AcDbSymbolTableRecord
100
AcDbLinetypeTableRecord
2
BYBLOCK
70
0
0
LTYPE
5
15
100
AcDbSymbolTableRecord
100
AcDbLinetypeTableRecord
2
BYLAYER
70
0
0
ENDTAB
0
TABLE
2
LAYER
5
2
100
AcDbSymbolTable
70
2
0
LAYER
5
50
100
AcDbSymbolTableRecord
100
AcDbLayerTableRecord
2
0
70
0
6
CONTINUOUS
0
ENDTAB
0
TABLE
2
STYLE
5
3
100
AcDbSymbolTable
70
1
0
STYLE
5
11
100
AcDbSymbolTableRecord
100
AcDbTextStyleTableRecord
2
STANDARD
70
0
0
ENDTAB
0
TABLE
2
VIEW
5
6
100
AcDbSymbolTable
70
0
0
ENDTAB
0
TABLE
2
UCS
5
7
100
AcDbSymbolTable
70
0
0
ENDTAB
0
TABLE
2
APPID
5
9
100
AcDbSymbolTable
70
2
0
APPID
5
12
100
AcDbSymbolTableRecord
100
AcDbRegAppTableRecord
2
ACAD
70
0
0
ENDTAB
0
TABLE
2
DIMSTYLE
5
A
100
AcDbSymbolTable
70
1
0
ENDTAB
0
TABLE
2
BLOCK_RECORD
5
1
100
AcDbSymbolTable
70
1
0
BLOCK_RECORD
5
1F
100
AcDbSymbolTableRecord
100
AcDbBlockTableRecord
2
*MODEL_SPACE
0
BLOCK_RECORD
5
1B
100
AcDbSymbolTableRecord
100
AcDbBlockTableRecord
2
*PAPER_SPACE
0
ENDTAB
0
ENDSEC
0
SECTION
2
BLOCKS
0
BLOCK
5
20
100
AcDbEntity
100
AcDbBlockBegin
2
*MODEL_SPACE
0
ENDBLK
5
21
100
AcDbEntity
100
AcDbBlockEnd
0
BLOCK
5
1C
100
AcDbEntity
100
AcDbBlockBegin
2
*PAPER_SPACE
0
ENDBLK
5
1D
100
AcDbEntity
100
AcDbBlockEnd
0
ENDSEC
0
SECTION
2
ENTITIES
0
LWPOLYLINE
5
100
100
AcDbEntity
8
0
100
AcDbPolyline
90
47
70
1
43
0.0
10
51.821829027923769
20
-52.469980993685219
10
23.812239678751794
20
-59.955847460783005
10
-27.871795793888481
20
-59.955847460783005
10
-55.837168767781833
20
-52.468255005733013
10
-60.689353736894347
20
-48.113287495042094
10
-61.698350597440523
20
-45.508085460783022
10
-79.795119137747719
20
-45.508085460783043
42
-0.41421356237309631
10
-83.795119137747704
20
-41.508085460783036
10
-83.795119137747704
20
-30.214153935014618
42
0.36337793450659961
10
-87.092285295847063
20
-26.276384948560594
10
-97.678013858628958
20
-24.386988109718342
10
-104.66271304664268
20
-25.868411198367607
42
-0.096137268046704791
10
-109.04387468814988
20
-25.944269442904115
10
-127.83389167556479
20
-22.634056992765235
10
-136.20620395395861
20
-21.15769211574051
42
-0.41421356237309959
10
-139.45078839924287
20
-16.523830683045446
10
-126.95480527220397
20
54.33959514969898
42
-0.36396678962300522
10
-123.01558451104952
20
57.644956655992992
10
-18.944317553831134
20
57.645013318512284
42
-0.44769070975744385
10
-16.957056229928718
20
55.41963195626564
10
-17.297295578851823
20
52.419631771018885
10
-17.632193347178351
20
49.46673002641387
10
-53.574488901535986
20
49.466636200510301
42
0.41421356237309193
10
-58.574475849221912
20
44.466623148230298
10
-58.574404123043848
20
16.990165239385753
42
0.41421356237309398
10
-53.57439107076388
20
11.990178291699829
10
0.48331337457184986
20
11.990319407142955
10
0.4832155437997443
20
49.466777315953436
10
0.48321495740079851
20
49.691411704471818
42
-0.29938725529544247
10
0.15264918480259126
20
50.739559265499501
10
0.48672053971024809
20
51.917804722733926
10
1.6981946777691446
20
56.190586207154674
42
-0.33542125830646657
10
3.6223462931658901
20
57.645025605131472
10
118.99451267428148
20
57.645088420525106
42
-0.36382936975998487
10
122.93339938986897
20
54.341643226881224
10
135.46407428540084
20
-16.516932642909268
42
-0.41421356237309964
10
132.22174455400423
20
-21.152371987016956
10
123.84451577787445
20
-22.633806365716183
10
105.03365418316314
20
-25.944795271075485
42
-0.095808538670324683
10
100.66715809737929
20
-25.87141270267697
10
93.636348639880822
20
-24.388734326691903
10
83.06789707662432
20
-26.280539716970139
42
0.36323541872472997
10
79.772713862251948
20
-30.217954261909181
10
79.772713862251948
20
-41.508085460783022
42
-0.41421356237309503
10
75.772713862251919
20
-45.508085460783022
10
57.688798107972374
20
-45.508085460783022
10
56.67501264882663
20
-48.119546695503281
0
CIRCLE
5
101
100
AcDbEntity
8
0
100
AcDbCircle
10
19.397669313253374
20
46.258475486274492
30
0
40
1.099999999999999
210
0
220
0
230
1
0
CIRCLE
5
102
100
AcDbEntity
8
0
100
AcDbCircle
10
32.971026514930948
20
54.145049761199573
30
0
40
1.0999999999999996
210
0
220
0
230
1
0
CIRCLE
5
103
100
AcDbEntity
8
0
100
AcDbCircle
10
-79.709332700120825
20
-41.422299023156128
30
0
40
1.1000000000000012
210
0
220
0
230
1
0
CIRCLE
5
104
100
AcDbEntity
8
0
100
AcDbCircle
10
-108.72553461600575
20
46.258475486274492
30
0
40
1.1000000000000032
210
0
220
0
230
1
0
CIRCLE
5
105
100
AcDbEntity
8
0
100
AcDbCircle
10
75.686927424625026
20
-41.422299023156114
30
0
40
1.0999999999999952
210
0
220
0
230
1
0
CIRCLE
5
106
100
AcDbEntity
8
0
100
AcDbCircle
10
-37.028973485069088
20
54.145049761199573
30
0
40
1.1000000000000032
210
0
220
0
230
1
0
CIRCLE
5
107
100
AcDbEntity
8
0
100
AcDbCircle
10
104.73799958507342
20
46.258475486274492
30
0
40
1.1000000000000032
210
0
220
0
230
1
0
CIRCLE
5
108
100
AcDbEntity
8
0
100
AcDbCircle
10
131.42577529060705
20
-17.143950469947704
30
0
40
1.0999999999999976
210
0
220
0
230
1
0
CIRCLE
5
109
100
AcDbEntity
8
0
100
AcDbCircle
10
119.02169520044609
20
53.677497105000072
30
0
40
1.1000000000000012
210
0
220
0
230
1
0
CIRCLE
5
110
100
AcDbEntity
8
0
100
AcDbCircle
10
-123.04251435285892
20
53.677053348207764
30
0
40
1.0999999999999988
210
0
220
0
230
1
0
CIRCLE
5
111
100
AcDbEntity
8
0
100
AcDbCircle
10
-135.4121848440613
20
-17.148883841465672
30
0
40
1.1000000000000005
210
0
220
0
230
1
0
ENDSEC
0
SECTION
2
OBJECTS
0
DICTIONARY
5
C
100
AcDbDictionary
3
ACAD_GROUP
350
D
3
ACAD_MLINESTYLE
350
17
0
DICTIONARY
5
D
100
AcDbDictionary
0
DICTIONARY
5
1A
330
C
100
AcDbDictionary
0
DICTIONARY
5
17
100
AcDbDictionary
0
ENDSEC
0
EOF
